<svg id="Group_87" data-name="Group 87" xmlns="http://www.w3.org/2000/svg" xmlns:xlink="http://www.w3.org/1999/xlink" width="188.612" height="70.616" viewBox="0 0 188.612 70.616">
  <defs>
    <clipPath id="clip-path">
      <rect id="Rectangle_966" data-name="Rectangle 966" width="188.612" height="70.616" fill="#fff"/>
    </clipPath>
  </defs>
  <path id="Path_35" data-name="Path 35" d="M93.558,5.44h3.123l10.586,33.746h-3.124Zm24.173,0h3.124l11.232,33.746h-3.124ZM141.394.669l-8.92,31.219L122.9.669h-9.837L116.208,10.9l-7.738,21.709L98.894.669h-9.9l13.577,43.288h9.773l7.673-22.169,7.477,22.169h9.772L150.9.669Z" transform="translate(-1.71 -0.013)" fill="#fff"/>
  <g id="Group_9" data-name="Group 9">
    <g id="Group_8" data-name="Group 8" clip-path="url(#clip-path)">
      <path id="Path_36" data-name="Path 36" d="M8.1,54.816h5.011a6.754,6.754,0,0,1,7.15,7.065,6.754,6.754,0,0,1-7.15,7.067H8.1Zm2.677,2.055V66.89h2.2c2.89,0,4.432-1.82,4.432-5.01s-1.542-5.01-4.432-5.01Z" transform="translate(-0.156 -1.054)" fill="#fff"/>
      <path id="Path_37" data-name="Path 37" d="M36.178,54.816h2.74l3.447,11,2.7-7.408-1.157-3.6h2.72l3.49,10.833,3.276-10.833h2.633l-4.6,14.13H48.745l-2.589-7.579-2.7,7.579H40.782Z" transform="translate(-0.695 -1.054)" fill="#fff"/>
      <path id="Path_38" data-name="Path 38" d="M66.435,54.816h2.676l5.2,14.13H71.467l-1.006-3H65l-1.028,3H61.254ZM65.6,64h4.282l-2.142-6.273Z" transform="translate(-1.177 -1.054)" fill="#fff"/>
      <path id="Path_39" data-name="Path 39" d="M75.43,66.972,77.057,65.2a4.555,4.555,0,0,0,3.789,1.777c1.649,0,2.5-.792,2.5-1.926,0-.921-.578-1.585-1.948-1.884l-1.734-.385c-2.355-.514-3.575-1.863-3.575-3.747,0-2.506,2.162-4.432,5.245-4.432,1.948,0,3.917.77,4.752,2.013L84.4,58.3a3.77,3.77,0,0,0-3.169-1.52c-1.562,0-2.44.836-2.44,1.949,0,1.006.706,1.562,1.927,1.841l1.734.385c2.269.492,3.6,1.842,3.6,3.79,0,2.483-2.141,4.411-5.417,4.411-2.055,0-4.261-.792-5.2-2.184" transform="translate(-1.45 -1.049)" fill="#fff"/>
      <rect id="Rectangle_965" data-name="Rectangle 965" width="2.677" height="14.13" transform="translate(87.131 53.762)" fill="#fff"/>
      <path id="Path_40" data-name="Path 40" d="M98.457,54.816h2.676l5.2,14.13h-2.847l-1.006-3h-5.46l-1.028,3H93.276ZM97.623,64H101.9l-2.142-6.273Z" transform="translate(-1.793 -1.054)" fill="#fff"/>
      <path id="Path_41" data-name="Path 41" d="M112.351,61.876a7.006,7.006,0,0,1,6.894-7.278,5.632,5.632,0,0,1,5.416,3.382l-2.14,1.393a3.579,3.579,0,0,0-3.447-2.506c-2.376,0-3.875,1.992-3.875,5.01s1.5,5.01,3.875,5.01a3.579,3.579,0,0,0,3.447-2.5l2.14,1.392a5.632,5.632,0,0,1-5.416,3.384,7.008,7.008,0,0,1-6.894-7.28" transform="translate(-2.159 -1.049)" fill="#fff"/>
      <path id="Path_42" data-name="Path 42" d="M126.352,64.391a5.034,5.034,0,1,1,5.031,4.861,5.046,5.046,0,0,1-5.031-4.861m7.558,0a2.542,2.542,0,1,0-2.527,2.826,2.605,2.605,0,0,0,2.527-2.826" transform="translate(-2.428 -1.145)" fill="#fff"/>
      <path id="Path_43" data-name="Path 43" d="M138.281,67.884a1.5,1.5,0,1,1,1.5,1.477,1.459,1.459,0,0,1-1.5-1.477" transform="translate(-2.658 -1.276)" fill="#fff"/>
      <path id="Path_44" data-name="Path 44" d="M144.467,65.866l1.884.729L143.7,71.882l-1.413-.578Z" transform="translate(-2.735 -1.266)" fill="#fff"/>
      <path id="Path_45" data-name="Path 45" d="M153.958,54.816h2.677V66.848h6.145v2.1h-8.821Z" transform="translate(-2.959 -1.054)" fill="#fff"/>
      <path id="Path_46" data-name="Path 46" d="M164.726,65.427V61.594h-1.691V59.967h.192c1.52,0,2.141-.963,2.141-2.355v-.836h.172a4.683,4.683,0,0,0,1.627-.171v3.1h3.49v1.884h-3.49v4.2c0,1.048.514,1.52,1.177,1.52a1.707,1.707,0,0,0,1.456-1.049l1.67,1.07a3.333,3.333,0,0,1-3.19,1.863,3.432,3.432,0,0,1-3.554-3.768" transform="translate(-3.134 -1.088)" fill="#fff"/>
      <path id="Path_47" data-name="Path 47" d="M172.227,64.3a4.749,4.749,0,0,1,4.41-4.838,3.408,3.408,0,0,1,3.127,2.056v-6.7h.813a4.928,4.928,0,0,0,1.627-.15v14.28h-2.44V67.1a3.387,3.387,0,0,1-3.127,2.056,4.756,4.756,0,0,1-4.41-4.861m7.6,0a2.671,2.671,0,0,0-2.526-2.8,2.827,2.827,0,0,0,0,5.63,2.691,2.691,0,0,0,2.526-2.826" transform="translate(-3.31 -1.051)" fill="#fff"/>
      <path id="Path_48" data-name="Path 48" d="M32.328,61.7H31.1v2.057h1.225v.92a1.8,1.8,0,0,1-.942,1.841,4.378,4.378,0,0,1-1.97.407c-2.847,0-4.239-1.991-4.239-4.988,0-3.126,1.52-5.075,3.939-5.075a3.714,3.714,0,0,1,3.533,2.5L34.811,58a5.83,5.83,0,0,0-5.544-3.4A6.977,6.977,0,0,0,22.33,61.92,6.941,6.941,0,0,0,29.5,69.156a7.462,7.462,0,0,0,5.437-2.076V61.7Z" transform="translate(-0.429 -1.049)" fill="#fff"/>
      <path id="Path_49" data-name="Path 49" d="M0,.668H16.069c13.314,0,22.3,8.854,22.3,21.644s-8.986,21.644-22.3,21.644H0ZM9.838,8.08V36.544h5.838c8,0,12.265-5.05,12.265-14.232S23.678,8.08,15.676,8.08Z" transform="translate(0 -0.013)" fill="#fff"/>
      <path id="Path_50" data-name="Path 50" d="M165.985.669h9.706L191.5,43.957H181.135L178.38,35.43H162.9l-2.755,8.527h-9.969Zm-1.05,27.743h11.412l-5.706-17.119Z" transform="translate(-2.886 -0.013)" fill="#fff"/>
      <path id="Path_51" data-name="Path 51" d="M74.641,21.644h-4.3v7.412h4.3v.721c0,2.624-.721,4.591-2.821,5.706A11.057,11.057,0,0,1,66.574,36.6C58.7,36.6,54.9,31.285,54.9,22.5c0-8.986,4.132-14.3,10.822-14.3,4.263,0,7.675,2.165,10.1,7.149l7.805-5.18C80.609,3.673,74.116,0,66.377,0,53.849,0,44.471,9.708,44.471,22.431c0,12.527,9.051,22.168,22.43,22.168,6.887,0,13.446-2.492,17.249-6.69V21.644Z" transform="translate(-0.855 0)" fill="#fff"/>
    </g>
  </g>
</svg>
